HIERARCHY
ROOT Hips
{
	OFFSET -14.64140 90.27770 -84.91600
	CHANNELS 6 Xposition Yposition Zposition Zrotation Xrotation Yrotation
	JOINT Spine
	{
		OFFSET 0.00000 13.20850 -1.60436
		CHANNELS 3 Zrotation Xrotation Yrotation
		JOINT Spine1
		{
			OFFSET 0.00000 8.61716 0.00000
			CHANNELS 3 Zrotation Xrotation Yrotation
			JOINT Spine2
			{
				OFFSET 0.00000 8.61717 0.00000
				CHANNELS 3 Zrotation Xrotation Yrotation
				JOINT Spine3
				{
					OFFSET 0.00000 8.61717 0.00000
					CHANNELS 3 Zrotation Xrotation Yrotation
					JOINT Neck
					{
						OFFSET 0.00000 11.07920 1.10792
						CHANNELS 3 Zrotation Xrotation Yrotation
						JOINT Neck1
						{
							OFFSET 0.00000 7.08032 0.00000
							CHANNELS 3 Zrotation Xrotation Yrotation
							JOINT Head
							{
								OFFSET 0.00000 7.08031 0.00000
								CHANNELS 3 Zrotation Xrotation Yrotation
								End site
								{
									OFFSET 0.00000 0.00000 0.00000
								}
							}
						}
					}
					JOINT RightShoulder
					{
						OFFSET -0.01000 7.91373 5.19711
						CHANNELS 3 Zrotation Xrotation Yrotation
						JOINT RightArm
						{
							OFFSET -18.41580 0.00000 0.00000
							CHANNELS 3 Zrotation Xrotation Yrotation
							JOINT RightForeArm
							{
								OFFSET -29.11090 0.00000 0.00000
								CHANNELS 3 Zrotation Xrotation Yrotation
								JOINT RightHand
								{
									OFFSET -24.65040 0.00000 0.00000
									CHANNELS 3 Zrotation Xrotation Yrotation
									JOINT RightHandThumb1
									{
										OFFSET -5.35114 -0.85590 3.97906
										CHANNELS 3 Zrotation Xrotation Yrotation
										JOINT RightHandThumb2
										{
											OFFSET -4.52789 0.00000 0.00000
											CHANNELS 3 Zrotation Xrotation Yrotation
											JOINT RightHandThumb3
											{
												OFFSET -2.46976 0.00000 0.00000
												CHANNELS 3 Zrotation Xrotation Yrotation
												End site
												{
													OFFSET 0.00000 0.00000 0.00000
												}
											}
										}
									}
									JOINT RightHandIndex1
									{
										OFFSET -14.26970 0.00000 2.88139
										CHANNELS 3 Zrotation Xrotation Yrotation
										JOINT RightHandIndex2
										{
											OFFSET -5.48836 0.00000 0.00000
											CHANNELS 3 Zrotation Xrotation Yrotation
											JOINT RightHandIndex3
											{
												OFFSET -3.01859 0.00000 0.00000
												CHANNELS 3 Zrotation Xrotation Yrotation
												End site
												{
													OFFSET 0.00000 0.00000 0.00000
												}
											}
										}
									}
									JOINT RightHandMiddle1
									{
										OFFSET -14.26970 0.00000 -0.09147
										CHANNELS 3 Zrotation Xrotation Yrotation
										JOINT RightHandMiddle2
										{
											OFFSET -6.17441 0.00000 0.00000
											CHANNELS 3 Zrotation Xrotation Yrotation
											JOINT RightHandMiddle3
											{
												OFFSET -3.56743 0.00000 0.00000
												CHANNELS 3 Zrotation Xrotation Yrotation
												End site
												{
													OFFSET 0.00000 0.00000 0.00000
												}
											}
										}
									}
									JOINT RightHandRing1
									{
										OFFSET -12.69180 0.00000 -3.06433
										CHANNELS 3 Zrotation Xrotation Yrotation
										JOINT RightHandRing2
										{
											OFFSET -5.62556 0.00000 0.00000
											CHANNELS 3 Zrotation Xrotation Yrotation
											JOINT RightHandRing3
											{
												OFFSET -3.56744 0.00000 0.00000
												CHANNELS 3 Zrotation Xrotation Yrotation
												End site
												{
													OFFSET 0.00000 0.00000 0.00000
												}
											}
										}
									}
									JOINT RightHandPinky1
									{
										OFFSET -11.11390 0.00000 -6.03719
										CHANNELS 3 Zrotation Xrotation Yrotation
										JOINT RightHandPinky2
										{
											OFFSET -4.52789 0.00000 0.00000
											CHANNELS 3 Zrotation Xrotation Yrotation
											JOINT RightHandPinky3
											{
												OFFSET -2.46976 0.00000 0.00000
												CHANNELS 3 Zrotation Xrotation Yrotation
												End site
												{
													OFFSET 0.00000 0.00000 0.00000
												}
											}
										}
									}
								}
							}
						}
					}
					JOINT LeftShoulder
					{
						OFFSET 0.01000 7.91373 5.19711
						CHANNELS 3 Zrotation Xrotation Yrotation
						JOINT LeftArm
						{
							OFFSET 18.41580 0.00000 0.00000
							CHANNELS 3 Zrotation Xrotation Yrotation
							JOINT LeftForeArm
							{
								OFFSET 29.11090 0.00000 0.00000
								CHANNELS 3 Zrotation Xrotation Yrotation
								JOINT LeftHand
								{
									OFFSET 24.65040 0.00000 0.00000
									CHANNELS 3 Zrotation Xrotation Yrotation
									JOINT LeftHandThumb1
									{
										OFFSET 5.35114 -0.85590 3.97906
										CHANNELS 3 Zrotation Xrotation Yrotation
										JOINT LeftHandThumb2
										{
											OFFSET 4.52789 0.00000 0.00000
											CHANNELS 3 Zrotation Xrotation Yrotation
											JOINT LeftHandThumb3
											{
												OFFSET 2.46977 0.00000 0.00000
												CHANNELS 3 Zrotation Xrotation Yrotation
												End site
												{
													OFFSET 0.00000 0.00000 0.00000
												}
											}
										}
									}
									JOINT LeftHandIndex1
									{
										OFFSET 14.26970 0.00000 2.88139
										CHANNELS 3 Zrotation Xrotation Yrotation
										JOINT LeftHandIndex2
										{
											OFFSET 5.48836 0.00000 0.00000
											CHANNELS 3 Zrotation Xrotation Yrotation
											JOINT LeftHandIndex3
											{
												OFFSET 3.01859 0.00000 0.00000
												CHANNELS 3 Zrotation Xrotation Yrotation
												End site
												{
													OFFSET 0.00000 0.00000 0.00000
												}
											}
										}
									}
									JOINT LeftHandMiddle1
									{
										OFFSET 14.26970 0.00000 -0.09147
										CHANNELS 3 Zrotation Xrotation Yrotation
										JOINT LeftHandMiddle2
										{
											OFFSET 6.17440 0.00000 0.00000
											CHANNELS 3 Zrotation Xrotation Yrotation
											JOINT LeftHandMiddle3
											{
												OFFSET 3.56744 0.00000 0.00000
												CHANNELS 3 Zrotation Xrotation Yrotation
												End site
												{
													OFFSET 0.00000 0.00000 0.00000
												}
											}
										}
									}
									JOINT LeftHandRing1
									{
										OFFSET 12.69180 0.00000 -3.06433
										CHANNELS 3 Zrotation Xrotation Yrotation
										JOINT LeftHandRing2
										{
											OFFSET 5.62556 0.00000 0.00000
											CHANNELS 3 Zrotation Xrotation Yrotation
											JOINT LeftHandRing3
											{
												OFFSET 3.56744 0.00000 0.00000
												CHANNELS 3 Zrotation Xrotation Yrotation
												End site
												{
													OFFSET 0.00000 0.00000 0.00000
												}
											}
										}
									}
									JOINT LeftHandPinky1
									{
										OFFSET 11.11390 0.00000 -6.03719
										CHANNELS 3 Zrotation Xrotation Yrotation
										JOINT LeftHandPinky2
										{
											OFFSET 4.52789 0.00000 0.00000
											CHANNELS 3 Zrotation Xrotation Yrotation
											JOINT LeftHandPinky3
											{
												OFFSET 2.46976 0.00000 0.00000
												CHANNELS 3 Zrotation Xrotation Yrotation
												End site
												{
													OFFSET 0.00000 0.00000 0.00000
												}
											}
										}
									}
								}
							}
						}
					}
					JOINT pCube4
					{
						OFFSET 0.00000 10.91090 1.10792
						CHANNELS 3 Zrotation Xrotation Yrotation
						End site
						{
							OFFSET 0.00000 0.00000 0.00000
						}
					}
				}
			}
		}
	}
	JOINT RightUpLeg
	{
		OFFSET -9.98441 0.00000 0.00000
		CHANNELS 3 Zrotation Xrotation Yrotation
		JOINT RightLeg
		{
			OFFSET 0.00000 -42.11790 0.00000
			CHANNELS 3 Zrotation Xrotation Yrotation
			JOINT RightFoot
			{
				OFFSET 0.00000 -45.00020 -0.00001
				CHANNELS 3 Zrotation Xrotation Yrotation
				JOINT RightForeFoot
				{
					OFFSET 0.00000 -3.74820 0.00000
					CHANNELS 3 Zrotation Xrotation Yrotation
					JOINT RightToeBase
					{
						OFFSET 0.00000 0.06325 14.43120
						CHANNELS 3 Zrotation Xrotation Yrotation
						End site
						{
							OFFSET 0.00000 0.00000 0.00000
						}
					}
				}
			}
		}
	}
	JOINT LeftUpLeg
	{
		OFFSET 9.98441 0.00000 0.00000
		CHANNELS 3 Zrotation Xrotation Yrotation
		JOINT LeftLeg
		{
			OFFSET 0.00000 -42.11800 0.00000
			CHANNELS 3 Zrotation Xrotation Yrotation
			JOINT LeftFoot
			{
				OFFSET 0.00000 -45.00070 0.00000
				CHANNELS 3 Zrotation Xrotation Yrotation
				JOINT LeftForeFoot
				{
					OFFSET 0.00000 -3.74824 0.00000
					CHANNELS 3 Zrotation Xrotation Yrotation
					JOINT LeftToeBase
					{
						OFFSET 0.00000 0.06325 14.43110
						CHANNELS 3 Zrotation Xrotation Yrotation
						End site
						{
							OFFSET 0.00000 0.00000 0.00000
						}
					}
				}
			}
		}
	}
}
MOTION
Frames: 4
Frame Time: 0.050000
0.02464174173737305 0.004513763730376208 -0.027982693492345286 -0.04650672103278646 -0.020325335871706582 -0.0028815276824116953 2.031927234614593 4.57929589187657 -1.4214310290205538 -0.5840169251494075 3.8316419169991516 0.3363786906463359 -0.7095771093275552 -1.301322709453861 1.4363667619372842 -0.6714586191433402 -0.23335604033883708 -0.2930780633540319 0.004703174164159073 13.889766596331887 -1.18854061058664 0.10565559228745441 -0.6174161704925875 -4.530813605456916 0.6734297758141389 -16.775251714914134 -0.4026298861359294 -7.392382743071011 2.8139115573072893 -14.829526458938371 74.53917519095492 11.017788983371334 19.617514245808962 6.847778603581684 -3.892246789707984 86.75028352847463 21.6159695115249 -0.587589529650923 -4.584088217867891 4.512462962592808 -0.11474404988238796 -1.5644715948546206 -1.2046848089502301e-05 -0.007207820638116176 -56.2050067077389 0.011695856908111863 0.0492970529379058 -56.28166910524935 -38.74725327288438 -0.012933183793136066 -0.03467701799649474 0.0019237801556734003 0.031176198248909385 -0.008961922346586364 -0.027648735826455165 -0.01918170189497457 0.008462542360678194 -36.65917871725715 0.02703412625918567 0.030756460238080714 -0.04174753780232605 -0.03035189172835129 -0.017166270904861607 -0.001215646138267548 -0.02170675832748451 -0.04276958519805238 -19.78114716433043 0.035599337085357556 -0.03469253187862717 -0.006919105194952058 -0.023023449532893384 -0.016713574303900715 -0.012259518166221015 -0.041671261505997044 0.047364312336443705 24.041211909755162 0.014473306478006456 -0.03809141885806654 28.883547347994842 -0.002339408698964588 -0.014652353676670648 28.83042529264767 -0.04972157160490571 -0.017936351767938993 7.430485762266709 1.9675460353139653 13.633444517450235 -72.29198264969104 21.603758027074793 -14.985443130770483 -7.444552468823665 1.8318231661552018 -72.10868216515463 -20.72219926389366 4.110926772378375 -3.1670694935207107 -0.4428168006817404 0.08093037662579357 -8.146101903526977 -0.010825285476133338 0.03957693912363733 44.56346618460698 0.01877286476785035 0.007634412420432582 44.529579758723244 12.428590580613632 -0.005189354554737848 0.026253641063838217 0.04760921454325995 0.030086955222947725 -0.004881770799223191 -0.027105172401383194 -0.03551756316001982 -0.002040655607292634 11.127261482444162 -0.025028122305359245 0.0147780502653826 -0.03198662885888712 -0.02854239609297488 0.0038920558093089087 -0.03701215113598248 0.01626095525970062 -0.038963716372878786 4.803529175396889 0.002586682961678851 0.032614357325224726 0.01602816456609525 0.0028153918694025053 0.0038139240649588116 0.02337642095150628 0.03327434065469007 -0.032281187207356184 -5.563634486018181 0.033338617645946686 0.04792295453725596 -6.734843008121782 0.027487182141448373 -0.009466131496122639 -6.682692989497248 0.005622602046046915 -0.03079014766038509 0.026639597915902254 5.0955352471826414e-05 -0.03391756732616286 8.05652833530714 3.5162743744825793 -19.23809081269749 0.018102176878398643 10.411313821300503 0.0517927340890348 -5.624531252895266 -15.676572923215522 3.152019456997456 -0.04962422223941363 -0.01832453777797806 -0.003513121334778585 0.0253040347436588 4.688589836277329 0.013006903144475147 12.50084479798664 -8.197073669318153 6.85794742445751 -0.022158463245889267 46.36878559512332 -0.012877531373622781 -4.343991907272291 -14.774602891032414 -3.8655457389540895 0.04148838607971284 -0.038989354128959125 0.0079088423587489 -0.007573470172503654 -10.758089398772707 0.029514873240265988 
-0.016239716443141754 0.015217536789686471 -0.0014284278104553928 -0.0019804532127582317 -0.04959129829210687 -0.03463902159621531 2.049820658069936 4.640856263305479 -1.4176526565265515 -0.5907781915597686 3.8833286220947465 0.340222522002891 -0.6907136195937752 -1.2750656345209477 1.4583534644738554 -0.5502569239431402 -0.18151912359015354 -0.2737981858419335 0.05119498358581766 13.851852316351739 -1.4065415215022887 0.11201045486320518 -0.5551437183140292 -5.015586978573728 0.7169057142838247 -16.649304536049904 -0.42125039974742534 -7.00211157228367 2.7324673709141702 -14.97529588025466 73.84105321668639 12.228437064279698 18.078412006897068 5.95343450770634 -3.8946452268413596 87.56246611053874 21.725721196637767 -0.5494297959498237 -4.743565236079901 4.555568260808698 -0.154238312047405 -1.6045079455091356 -0.018403139003480687 -0.024315121380101293 -56.242614666753326 -0.04906199983768544 0.015785799073451644 -56.27532356212078 -38.72623707196628 0.03162466839623383 0.02762185275483054 0.020194798224924232 0.0008481968216188334 0.008469409248749267 -0.040276389756721 0.01798127286065917 0.04111808849509554 -36.715992750437536 0.012307871129204713 -0.012429999935352782 0.03625279606620943 -0.012214787871221933 -0.008826593787260086 -0.02353102261505585 0.04844068484745237 -0.021155438088553854 -19.734341993194626 0.011598392113874595 -0.04999113470823301 0.032483838797565265 -0.02990335413481823 0.009417461660084838 0.02913069482189141 0.010026350797172262 0.018861797138955767 24.03262523165193 -0.031943774038551885 0.007705249420285685 28.872067924459504 -0.024662370398262943 -0.02926384459947536 28.908186089898788 -0.012257531664065973 -0.014293504328933003 6.958055570316466 1.9125106757271821 13.70093569114405 -72.09951921090014 22.11343429543528 -13.811589989054498 -6.871536707408862 2.5158359195801765 -71.34672767256556 -20.85140940473868 4.308347510507763 -3.221626442134623 -0.49544462000929457 0.10939464549336636 -8.082333772457797 -0.032467007347034824 -0.04944135609094653 44.529871222694304 -0.03674872847862651 0.021672281891118552 44.55985210884542 12.471761529337632 -0.01498475248947631 0.03452362261035912 0.007691406641699181 -0.005947891688040798 0.0033909572866514083 0.008211135420797221 -0.019848398697528125 0.012368513302051229 11.082063658393697 0.003021543317003866 -0.032783812726103395 -0.02658061388068867 -0.015308118887311699 0.037215726446011406 0.026624938525167053 -0.011345867305210571 0.03061358295449451 4.774348853390879 0.008018527586109976 0.024909455787566204 -0.032003083839207656 -0.03166592897849415 -0.020265873039139067 0.014975048829928957 -0.03380026939837497 -0.03803959617262483 -5.630258311689014 0.006994530902956537 0.008832301737585641 -6.754228485027283 0.01587662219943542 0.03158049299182654 -6.677254968026349 0.011121957062296175 0.0380446467547587 -0.012243743040738162 0.011863323328798333 -0.016378330585734055 8.02693350620084 3.4473992129299966 -19.183778771159737 -0.012459465817601004 10.400780358502422 0.04453081915460425 -5.653746198227263 -15.654127045119811 3.2082880781860177 0.007151743228797128 0.021181843922449477 0.030124961160774656 0.0467398157979732 4.648856650033942 0.046811417681356764 12.489044519809458 -8.270012348161815 6.886474825568931 -3.55358778681622e-06 46.352280838840024 0.011786413598272039 -4.338835448994512 -14.750746708393697 -3.8746491320538534 0.010600261837002436 0.016176470972471466 0.03902367412360635 0.018698904212367657 -10.711613502800393 -0.03401397469121325 
0.0042737319615116665 -0.02593987793697485 0.007387518409010668 0.042892533360082724 -0.02661274870845405 -0.0020978449738465028 2.0855879348552295 4.645233718212785 -1.4332384992334593 -0.6463974421408252 3.834030118174101 0.37218054417055424 -0.7016957721002798 -1.1918108319521539 1.4266247260334848 -0.5059958638890238 -0.1354850956578872 -0.27948690884645866 0.09220625907006695 13.64296263253517 -1.4911816850680288 0.09417753820392533 -0.43572748958588886 -5.374261554944539 0.7533744091677651 -16.354662625399225 -0.4194131947473146 -6.6334716228609665 2.6158241405920717 -15.072162350408702 73.29596940804934 13.299487991461893 15.933276905317584 5.062291064150246 -3.0991288204742524 85.92344202393818 22.264352860099937 -0.5854562786178584 -4.906772988082358 4.53556221990903 -0.14293467912846275 -1.6278347946236258 -0.014150598283373955 0.009307217035246774 -56.2309426419004 0.03602620293862807 -0.04518873185409827 -56.28236180500262 -38.76298638039509 0.0003644820784839153 -0.011533766237536564 -0.019202410765466686 -0.04037750452104039 -0.022068320974509423 0.016881807851634234 -0.012201265106747083 -0.004134782694474065 -36.67189604357972 -0.0032853741345086496 -0.019299848042889933 -0.03249531563941054 -0.02315015849727773 -0.022842928673168627 -0.002453595186268961 0.022846375453681896 0.02671279341128205 -19.762186750801167 -0.02823740480479007 0.012593035869155974 0.02466063647470053 -0.03844058986326684 0.04871969874058772 0.000637805763192009 -0.025796367870271324 -0.0017165467240538414 24.060417410414573 -0.002983080308924072 -0.04475010697539673 28.855199591453268 -0.01162786595010519 0.032909429568310576 28.887230450568694 0.011571527952188748 0.04238778337428056 6.568617480539879 1.810651585640141 13.810648716747313 -71.79768291694695 22.42646857527976 -12.696093221912735 -5.510739453045286 3.1845996125632143 -69.30416509168262 -21.03754024556064 4.696761570077101 -3.3350251421139574 -0.4351524583816846 0.100773393723395 -8.153117326047855 0.03345019496011836 0.0028011825825362594 44.596245569068955 0.04310498702489329 0.037934302350051526 44.540145720520485 12.480659213561937 -0.0428618593152929 -0.007362841858117503 0.03884048604398555 0.012573623036769371 0.0012168984676485532 -0.00909484551706397 0.007046476776443586 -0.04375101432527965 11.106320150209818 -0.0017408920318735146 -0.0180921284671417 0.022071202390971056 -0.03354030838350918 -0.0006760249739449901 0.028226738397151355 0.038925890269801484 -0.012107716237972155 4.799335886722516 -0.012100044477784252 -0.007634773334338785 -0.010715696725553055 -0.017746330779544683 -0.004873775890418502 0.03138526230595204 -0.005437801055836304 -0.028527265357756102 -5.645455267948298 0.04241919943510765 0.008695575450407543 -6.701109406105315 -0.012206161911571214 0.016862589889338336 -6.733919903011826 0.029668660461199054 0.01925146501845872 0.008752552832846316 0.007047724793411913 -0.009626834571949476 8.00259199273824 3.4845400188482873 -19.224681249171375 0.019528868109443508 10.413481586244416 0.05607629111053955 -5.5753300255391816 -15.628066675649121 3.19897366305608 0.010020956619081514 0.04007627095338652 0.01690749376779767 -0.041669129280873234 4.668093999694157 -0.020478381739653852 12.475239250688526 -8.244808519253796 6.8822344807045805 -0.005226392680097549 46.39613570529321 0.04168423624838609 -4.353905242130111 -14.779146952018264 -3.866143041035269 0.007521844597905217 0.024146096468696934 -0.024095757593337652 0.03794650505929062 -10.771701278791086 0.030792338341421206 
-0.0011897275587531317 -0.012048245969228457 -0.029339299243101594 0.03181436948685806 -0.001358899752462595 -0.023669086248803442 2.148487333608355 4.669835910038235 -1.4786294909377364 -0.5771342263716074 3.7763967890871024 0.36972748867030825 -0.6632845320244204 -1.1748175601972641 1.3156465892277671 -0.43891448335605 -0.1661900915621895 -0.3248525896865646 0.06842377305943581 13.567253689434626 -1.5900634389362729 0.1663531520963675 -0.4236117647593919 -5.482252128594216 0.7570792201383514 -16.153760990097542 -0.4212101294894206 -6.132493221523864 2.5145402241478036 -15.099375068120507 72.84968558096956 14.518914951017244 13.279054011469304 4.122128557237733 -1.5879444990543345 82.96484194425194 23.421079832617412 -0.49833258046447787 -5.015417097121637 4.529854766809796 -0.1700313657912003 -1.5993362973504923 -0.0438234369457132 -0.04233563200441596 -56.23937540311 0.008310864439372803 -0.04135986118584284 -56.28321574395967 -38.73519997879541 -0.04290675103209883 -0.0005603656963763996 -0.024398101610987415 -0.01699627225115809 0.009207791977428484 0.010035249712603111 -0.011410080153491322 -0.04551438587255596 -36.6519527822989 -0.03974531143000826 -0.019201083517696657 -0.030413667928351942 0.01316064483221301 0.0450451700147631 0.019903919085857383 -0.023777047036687506 -0.019568657618120218 -19.75714060185 -0.009580866285382711 -0.029500161492661894 0.02737416382309919 -0.004078170095015966 -0.024118793899844403 -0.004866612629062295 0.0057628625034156266 -0.004167888891741265 24.022076623725887 0.03993500197107816 -0.03660111588552238 28.86320958378363 0.007363849454870362 -0.003144395197292339 28.83548991088909 -0.03912298211686239 0.010075311056891407 6.13432508257452 1.769050575900384 13.90091283950372 -71.47887309480159 22.62056347358327 -11.687369174331192 -4.105489061821217 3.718316621386236 -67.54768189772844 -21.269120220707666 5.234191015988727 -3.53523121222306 -0.4374843435529326 0.0375527850829641 -8.144549389937207 -0.016468037615176942 0.027173139842197155 44.5892931907242 -0.0011188565013609836 -0.027901577901016085 44.56316707687565 12.421607104539083 0.01560088693721657 -0.018185120484747505 -0.04848526684950999 0.002474409360604036 0.03112233470296184 0.032202409235238046 0.02835095123318904 -0.003962398501011441 11.100784607050922 -0.0316718407561041 0.020335487111685365 -0.0073909630648625255 -0.04995337195185949 -0.046675270270382076 -0.02837424609588616 -0.041464342845501156 0.004184415596461213 4.814691729819766 0.03709336367015137 -0.01608780563557419 0.023114770290164063 -0.03805532791957863 0.00021754954754986462 -0.04831320422917224 7.001259114298375e-05 -0.01781036580724756 -5.573183005911909 -0.025918224445509185 0.04767137154530714 -6.732406153089738 -0.018917616707671135 -0.01325625711129975 -6.745513126959671 0.04803078794206651 -0.03981840138278881 -0.04549683492769033 -0.04286909258208632 -0.02025909963683131 8.002800062981652 3.522079648900518 -19.208884114907693 0.048534307557670825 10.428367998877594 0.018715057674136767 -5.572320134404586 -15.661429974820338 3.164084564103312 0.038581744253011294 -0.0450304542211041 0.046051743647186845 -0.043688103879970644 4.647743723286799 -0.027551150651402692 12.427829855105418 -8.18929379443163 6.86970909671531 -0.04262918237634421 46.41609488969114 -0.005724938633706743 -4.330240972955565 -14.745691686519566 -3.846245793512618 -0.04794892526974334 -0.03223638449658831 -0.01065720410960217 0.026582972468391006 -10.753089075644565 0.04402066761027557 
